Artist: Maria Joao Pires
Title: Mozart - Piano Sonatas "Alla Turca"
Date of Realise: 1990
Genre: Classical / Piano
Total Tracks: 08
Format: FLAC
Quality: lossless
Total Time: 01:02:14 min
Size: 170 MB

Tracklist: 
01. Piano Fantasia in C minor K.475 (12:03)
02. Piano sonata No.14 in C minor K.457 (1) Molto allegro (08:15)
03. Piano sonata No.14 in C minor K.457 (2) Adago (07:26)
04. Piano sonata No.14 in C minor K.457 (3) Allegro assai (04:40)
05. Piano Fantasia in D minor K.397 (06:07)
06. Piano sonata No.11 in A major K.331 (1) Andante grazioso (14:13)
07. Piano sonata No.11 in A major K.331 (2) Menuetto-Trio (05:46)
08. Piano sonata No.11 in A major K.331 (3) Alla turca. Allegretto (03:40)

--------------------------------------------------------------------------

Exact Audio Copy V0.99 prebeta 4 from 23. January 2008

EAC extraction logfile from 16. March 2009, 10:59

Mozart / Maria João Pires

Used drive  : PLEXTOR CD-R   PX-W4012A   Adapter: 0  ID: 1

Read mode               : Secure
Utilize accurate stream : Yes
Defeat audio cache      : Yes
Make use of C2 pointers : No

Read offset correction                      : 98
Overread into Lead-In and Lead-Out          : No
Fill up missing offset samples with silence : Yes
Delete leading and trailing silent blocks   : No
Null samples used in CRC calculations       : Yes
Used interface                              : Installed external ASPI interface
Gap handling                                : Appended to previous track

Used output format              : User Defined Encoder
Selected bitrate                : 1024 kBit/s
Quality                         : High
Add ID3 tag                     : No
Command line compressor         : C:\Flac\flac.exe
Additional command line options : -5 -V -T "ARTIST=%a" -T "TITLE=%t" -T "ALBUM=%g" -T "DATE=%y" -T "TRACKNUMBER=%n" -T "TOTALTRACKS=%x" -T "GENRE=%m" -T "COMMENT=%e" %s -o %d


TOC of the extracted CD

     Track |   Start  |  Length  | Start sector | End sector 
    ---------------------------------------------------------
        1  |  0:00.33 | 12:03.62 |        33    |    54319   
        2  | 12:04.20 |  8:15.65 |     54320    |    91509   
        3  | 20:20.10 |  7:26.68 |     91510    |   125027   
        4  | 27:47.03 |  4:40.15 |    125028    |   146042   
        5  | 32:27.18 |  6:07.22 |    146043    |   173589   
        6  | 38:34.40 | 14:13.05 |    173590    |   237569   
        7  | 52:47.45 |  5:46.20 |    237570    |   263539   
        8  | 58:33.65 |  3:40.68 |    263540    |   280107   


Track  1

     Filename D:\Music\Mozart\[1990] Maria João Pires\01 - Piano Fantasia in C minor K.475.wav

     Pre-gap length  0:00:02.33

     Peak level 55.0 %
     Track quality 100.0 %
     Test CRC 1BF01A70
     Copy CRC 1BF01A70
     Accurately ripped (confidence 4)  [E7E32E61]
     Copy OK

Track  2

     Filename D:\Music\Mozart\[1990] Maria João Pires\02 - Piano sonata No.14 in C minor K.457 (1) Molto allegro.wav

     Pre-gap length  0:00:04.72

     Peak level 58.2 %
     Track quality 100.0 %
     Test CRC 26E2245E
     Copy CRC 26E2245E
     Accurately ripped (confidence 4)  [837EADA7]
     Copy OK

Track  3

     Filename D:\Music\Mozart\[1990] Maria João Pires\03 - Piano sonata No.14 in C minor K.457 (2) Adagio.wav

     Pre-gap length  0:00:03.12

     Peak level 37.0 %
     Track quality 100.0 %
     Test CRC 3767F2F0
     Copy CRC 3767F2F0
     Accurately ripped (confidence 4)  [71AC541C]
     Copy OK

Track  4

     Filename D:\Music\Mozart\[1990] Maria João Pires\04 - Piano sonata No.14 in C minor K.457 (3) Allegro assai.wav

     Pre-gap length  0:00:01.70

     Peak level 68.7 %
     Track quality 100.0 %
     Test CRC F36E29A8
     Copy CRC F36E29A8
     Accurately ripped (confidence 4)  [CCA367CC]
     Copy OK

Track  5

     Filename D:\Music\Mozart\[1990] Maria João Pires\05 - Piano Fantasia in D minor K.397.wav

     Pre-gap length  0:00:06.55

     Peak level 55.9 %
     Track quality 100.0 %
     Test CRC 9532E2D1
     Copy CRC 9532E2D1
     Accurately ripped (confidence 4)  [DC0B6D93]
     Copy OK

Track  6

     Filename D:\Music\Mozart\[1990] Maria João Pires\06 - Piano sonata No.11 in A major K.331 (1) Andante grazioso.wav

     Pre-gap length  0:00:07.07

     Peak level 50.1 %
     Track quality 99.9 %
     Test CRC 73D51D08
     Copy CRC 73D51D08
     Accurately ripped (confidence 4)  [BAA72D44]
     Copy OK

Track  7

     Filename D:\Music\Mozart\[1990] Maria João Pires\07 - Piano sonata No.11 in A major K.331 (2) Menuetto-Trio.wav

     Peak level 38.5 %
     Track quality 100.0 %
     Test CRC 4EC0B362
     Copy CRC 4EC0B362
     Accurately ripped (confidence 4)  [B8498F39]
     Copy OK

Track  8

     Filename D:\Music\Mozart\[1990] Maria João Pires\08 - Piano sonata No.11 in A major K.331 (3) Alla turca. Allegretto.wav

     Pre-gap length  0:00:00.55

     Peak level 57.5 %
     Track quality 100.0 %
     Test CRC A7E4116D
     Copy CRC A7E4116D
     Accurately ripped (confidence 4)  [7DE36D34]
     Copy OK


All tracks accurately ripped

No errors occurred

End of status report
